#define logo_48x48_width 48
#define logo_48x48_height 48
static unsigned char logo_48x48_bits[] = {
   0x00, 0x00, 0x00, 0x00, 0x00, 0x00, 0x00, 0x00, 0x00, 0x00, 0x00, 0x00,
   0x00, 0x00, 0x00, 0x00, 0x00, 0x00, 0x00, 0x00, 0x00, 0x00, 0x00, 0x00,
   0x00, 0x00, 0x00, 0x00, 0x00, 0x00, 0x00, 0x00, 0x00, 0x00, 0x00, 0x00,
   0x00, 0x00, 0x00, 0x00, 0x00, 0x00, 0x00, 0x00, 0x00, 0x00, 0x00, 0x00,
   0x00, 0x00, 0x00, 0x00, 0x00, 0x00, 0x00, 0x00, 0x00, 0x00, 0x00, 0x00,
   0x00, 0x00, 0x40, 0x01, 0x00, 0x05, 0x00, 0x00, 0xba, 0x2e, 0x00, 0x02,
   0x00, 0x80, 0x6b, 0x5b, 0x00, 0x04, 0x00, 0xe0, 0x57, 0x75, 0x00, 0x00,
   0x00, 0xb0, 0xfa, 0x16, 0x00, 0x00, 0x00, 0xfc, 0xa7, 0x3d, 0x00, 0x00,
   0x00, 0x56, 0x5f, 0x2b, 0x00, 0x00, 0x00, 0xf6, 0x6e, 0x1d, 0x01, 0x00,
   0x80, 0x5b, 0xdb, 0x95, 0x04, 0x00, 0x00, 0x77, 0x5f, 0x1f, 0x00, 0x00,
   0xc0, 0xdd, 0xda, 0x8a, 0x0a, 0x00, 0x00, 0xb5, 0xbf, 0x0e, 0x10, 0x00,
   0x00, 0x6e, 0xd5, 0x25, 0x41, 0x00, 0x00, 0x68, 0x7f, 0x27, 0x0a, 0x00,
   0x00, 0xb0, 0xad, 0x82, 0x20, 0x00, 0x00, 0x80, 0xbd, 0x13, 0x00, 0x00,
   0x00, 0x00, 0x77, 0x41, 0x01, 0x00, 0x00, 0x00, 0xfc, 0x09, 0x00, 0x00,
   0x00, 0x00, 0x70, 0x21, 0x00, 0x00, 0x00, 0x00, 0xc0, 0x00, 0x00, 0x00,
   0x00, 0x00, 0x80, 0x00, 0x00, 0x00, 0x00, 0x00, 0x00, 0x00, 0x00, 0x00,
   0x00, 0x7f, 0xb4, 0x5a, 0x12, 0x00, 0x00, 0x18, 0xf7, 0xfe, 0xb6, 0x00,
   0x00, 0x18, 0xdf, 0xfe, 0xdc, 0x00, 0x00, 0x7f, 0xff, 0xde, 0xfe, 0x00,
   0x00, 0x1c, 0xdf, 0xde, 0xdc, 0x00, 0x00, 0x34, 0xff, 0xfe, 0x4c, 0x00,
   0x00, 0x67, 0x77, 0xfe, 0xce, 0x00, 0x00, 0x00, 0x40, 0x00, 0x00, 0x00,
   0x00, 0x00, 0x00, 0x00, 0x00, 0x00, 0x00, 0x00, 0x00, 0x00, 0x00, 0x00,
   0x00, 0x00, 0x00, 0x00, 0x00, 0x00, 0x00, 0x00, 0x00, 0x00, 0x00, 0x00,
   0x00, 0x00, 0x00, 0x00, 0x00, 0x00, 0x00, 0x00, 0x00, 0x00, 0x00, 0x00,
   0x00, 0x00, 0x00, 0x00, 0x00, 0x00, 0x00, 0x00, 0x00, 0x00, 0x00, 0x00 };
